<svg viewBox="0 0 32 32" xmlns="http://www.w3.org/2000/svg">
<path d="M4.14885 30.359C4.60716 30.359 5.00298 30.2027 5.3363 29.8902C5.66962 29.5777 5.83628 29.1895 5.83628 28.7258V21.0737C6.06543 21.0031 6.44042 20.9073 6.96123 20.7864C7.48204 20.6654 8.13305 20.6049 8.91426 20.6049C10.2267 20.6049 11.4662 20.7359 12.6328 20.9981C13.8099 21.2602 14.9557 21.5677 16.0702 21.9206C17.1951 22.2633 18.3409 22.5658 19.5075 22.8279C20.6742 23.09 21.9033 23.2211 23.1949 23.2211C24.3198 23.2211 25.2312 23.1505 25.9291 23.0094C26.6374 22.8582 27.2832 22.6515 27.8665 22.3894C28.4082 22.1373 28.8196 21.7794 29.1009 21.3156C29.3925 20.8418 29.5383 20.2722 29.5383 19.6068V5.66368C29.5383 5.0991 29.3509 4.64542 28.9759 4.30264C28.6009 3.94978 28.1217 3.77335 27.5384 3.77335C27.0489 3.77335 26.4552 3.854 25.7573 4.01531C25.0698 4.17662 24.1792 4.25727 23.0855 4.25727C21.8251 4.25727 20.6117 4.12621 19.445 3.86408C18.2888 3.60196 17.1431 3.2995 16.0077 2.95672C14.8723 2.60386 13.7161 2.29637 12.5391 2.03424C11.3621 1.77212 10.1173 1.64105 8.80489 1.64105C7.72161 1.64105 6.83623 1.71162 6.14876 1.85277C5.47171 1.99391 4.81028 2.20563 4.16448 2.48792C3.62283 2.72988 3.20098 3.04746 2.89891 3.44065C2.60725 3.83384 2.46143 4.35809 2.46143 5.01341V28.7258C2.46143 29.1794 2.62809 29.5625 2.9614 29.8751C3.29472 30.1977 3.69054 30.359 4.14885 30.359Z" />
</svg>
