<svg width="24" height="24" viewBox="0 0 24 24" fill="none" xmlns="http://www.w3.org/2000/svg">
<g clip-path="url(#clip0_4153_14464)">
<path fill-rule="evenodd" clip-rule="evenodd" d="M23.16 12.2642C23.16 11.4399 23.086 10.6473 22.9486 9.88635H12V14.3831H18.2564C17.9869 15.8362 17.1678 17.0674 15.9366 17.8918V20.8086H19.6936C21.8918 18.7848 23.16 15.8045 23.16 12.2642Z" fill="#4285F4"/>
<path fill-rule="evenodd" clip-rule="evenodd" d="M12 23.625C15.1387 23.625 17.7702 22.584 19.6936 20.8086L15.9366 17.8918C14.8957 18.5893 13.5641 19.0014 12 19.0014C8.97219 19.0014 6.4094 16.9565 5.49526 14.2087H1.61145V17.2207C3.52429 21.0199 7.45565 23.625 12 23.625Z" fill="#34A853"/>
<path fill-rule="evenodd" clip-rule="evenodd" d="M5.49528 14.2087C5.26278 13.5112 5.13068 12.7662 5.13068 12C5.13068 11.2338 5.26278 10.4887 5.49528 9.79123V6.7793H1.61148C0.824148 8.34867 0.375 10.1241 0.375 12C0.375 13.8758 0.824148 15.6513 1.61148 17.2207L5.49528 14.2087Z" fill="#FBBC05"/>
<path fill-rule="evenodd" clip-rule="evenodd" d="M12 4.99858C13.7067 4.99858 15.2391 5.58511 16.4439 6.73705L19.7782 3.40278C17.7649 1.52693 15.1334 0.375 12 0.375C7.45565 0.375 3.52429 2.98006 1.61145 6.77932L5.49526 9.79125C6.4094 7.04352 8.97219 4.99858 12 4.99858Z" fill="#EA4335"/>
</g>
<defs>
<clipPath id="clip0_4153_14464">
<rect width="24" height="24" fill="white"/>
</clipPath>
</defs>
</svg>
