<svg viewBox="0 0 16 16" xmlns="http://www.w3.org/2000/svg">
<path d="M 3.2949219 6.5429688 A 0.75 0.75 0 0 0 2.7578125 6.7617188 C 0.96913262 8.5424569 0.97797689 11.456364 2.7558594 13.242188 C 4.5365928 15.030863 7.4504994 15.022112 9.2363281 13.244141 C 11.024279 11.464223 11.022354 8.5496617 9.2363281 6.7636719 A 0.75 0.75 0 0 0 8.1757812 6.7636719 A 0.75 0.75 0 0 0 8.1757812 7.8242188 C 9.3898357 9.0382489 9.3898634 10.974958 8.1777344 12.181641 C 6.9635631 13.39047 5.0243059 13.394919 3.8183594 12.183594 C 2.6095819 10.969417 2.6050861 9.0301606 3.8164062 7.8242188 A 0.75 0.75 0 0 0 3.8183594 6.7636719 A 0.75 0.75 0 0 0 3.2949219 6.5429688 z " />
<path d="M 9.8867188 1.3632812 C 8.6690037 1.3625205 7.4528998 1.822454 6.5292969 2.75 C 4.6840592 4.6031272 4.682224 7.6236302 6.5292969 9.4707031 A 0.75 0.75 0 0 0 7.5898438 9.4707031 A 0.75 0.75 0 0 0 7.5898438 8.4101562 C 6.3169166 7.1372291 6.3170345 5.0888065 7.5917969 3.8085938 C 8.8645911 2.5303657 10.910402 2.535021 12.191406 3.8105469 C 13.469663 5.0833369 13.463016 7.1291947 12.1875 8.4101562 A 0.75 0.75 0 0 0 12.191406 9.4707031 A 0.75 0.75 0 0 0 13.251953 9.46875 C 15.096437 7.6163916 15.105143 4.5952568 13.25 2.7480469 C 12.323802 1.8258098 11.104434 1.364042 9.8867188 1.3632812 z "/>
</svg>
