<svg viewBox="0 0 64 64" xmlns="http://www.w3.org/2000/svg">
<path fill-rule="evenodd" clip-rule="evenodd" d="M28.6442 62.6147C29.3292 63 30.2194 63 32 63C33.7806 63 34.6708 63 35.3558 62.6147C35.7371 62.4002 36.0669 62.1048 36.3221 61.7494C36.7804 61.1109 36.8782 60.226 37.074 58.4563L37.2847 56.5506C37.3724 55.7578 37.4163 55.3614 37.5628 55.0552C37.7038 54.7606 37.8606 54.5629 38.1153 54.3585C38.3801 54.1461 38.8097 53.9943 39.6689 53.6905C40.4366 53.419 41.1855 53.108 41.9133 52.7599C42.735 52.3668 43.1458 52.1703 43.4834 52.1331C43.8081 52.0973 44.0592 52.1262 44.3672 52.2347C44.6876 52.3476 44.9989 52.597 45.6217 53.0957L47.1196 54.2952C48.5094 55.4082 49.2043 55.9648 49.9798 56.0922C50.4116 56.1631 50.8536 56.1387 51.2749 56.0208C52.0317 55.8089 52.6613 55.1794 53.9203 53.9203C55.1794 52.6613 55.8089 52.0317 56.0208 51.2749C56.1387 50.8536 56.1631 50.4116 56.0922 49.9798C55.9648 49.2043 55.4082 48.5094 54.2952 47.1196L53.0957 45.6217C52.597 44.9989 52.3476 44.6876 52.2347 44.3672C52.1262 44.0592 52.0973 43.8081 52.1331 43.4834C52.1703 43.1458 52.3668 42.735 52.7599 41.9133C53.108 41.1855 53.419 40.4366 53.6905 39.6689C53.9943 38.8097 54.1461 38.3801 54.3585 38.1153C54.5629 37.8606 54.7606 37.7038 55.0552 37.5628C55.3614 37.4163 55.7578 37.3724 56.5506 37.2847L58.4563 37.074C60.226 36.8782 61.1109 36.7804 61.7494 36.3221C62.1048 36.0669 62.4002 35.7371 62.6147 35.3558C63 34.6708 63 33.7806 63 32C63 30.2194 63 29.3292 62.6147 28.6442C62.4002 28.2629 62.1048 27.9331 61.7494 27.6779C61.1109 27.2196 60.226 27.1218 58.4563 26.926L56.5506 26.7153C55.7578 26.6276 55.3614 26.5837 55.0552 26.4372C54.7606 26.2962 54.5629 26.1394 54.3585 25.8847C54.1461 25.6199 53.9943 25.1903 53.6905 24.3311C53.419 23.5634 53.108 22.8145 52.7599 22.0867C52.3668 21.265 52.1703 20.8542 52.1331 20.5166C52.0973 20.1919 52.1262 19.9408 52.2347 19.6328C52.3476 19.3124 52.597 19.0011 53.0957 18.3783L54.2952 16.8804L54.2953 16.8804C55.4083 15.4906 55.9648 14.7957 56.0922 14.0202C56.1631 13.5884 56.1387 13.1464 56.0208 12.7251C55.8089 11.9683 55.1794 11.3387 53.9203 10.0797C52.6613 8.82065 52.0317 8.19113 51.2749 7.97924C50.8536 7.86128 50.4116 7.83691 49.9798 7.90784C49.2043 8.03524 48.5094 8.59175 47.1196 9.70476L45.6217 10.9043C44.9989 11.403 44.6876 11.6524 44.3672 11.7653C44.0592 11.8738 43.8081 11.9027 43.4834 11.8669C43.1458 11.8297 42.735 11.6332 41.9133 11.2401C41.1855 10.892 40.4366 10.581 39.6689 10.3095C38.8097 10.0058 38.3801 9.85386 38.1153 9.64145C37.8606 9.43709 37.7038 9.23942 37.5628 8.94482C37.4163 8.63864 37.3724 8.24223 37.2847 7.44939L37.074 5.54372C36.8782 3.77396 36.7804 2.88908 36.3221 2.25063C36.0669 1.89518 35.7371 1.59983 35.3558 1.38531C34.6708 1 33.7806 1 32 1C30.2194 1 29.3292 1 28.6442 1.38531C28.2629 1.59983 27.9331 1.89518 27.6779 2.25063C27.2196 2.88907 27.1218 3.77395 26.926 5.54371V5.54372L26.7153 7.44939C26.6276 8.24223 26.5837 8.63864 26.4372 8.94482C26.2962 9.23941 26.1394 9.43709 25.8847 9.64145C25.6199 9.85386 25.1903 10.0058 24.3311 10.3095C23.5634 10.581 22.8145 10.892 22.0867 11.2401C21.265 11.6332 20.8542 11.8297 20.5166 11.8669C20.1919 11.9027 19.9408 11.8738 19.6328 11.7653C19.3124 11.6524 19.0011 11.403 18.3783 10.9043L16.8804 9.70475C15.4906 8.59175 14.7957 8.03524 14.0202 7.90784C13.5884 7.83691 13.1464 7.86128 12.7251 7.97925C11.9683 8.19113 11.3387 8.82065 10.0797 10.0797C8.82065 11.3387 8.19113 11.9683 7.97925 12.7251C7.86128 13.1464 7.83691 13.5884 7.90784 14.0202C8.03525 14.7957 8.59175 15.4906 9.70476 16.8804L10.9043 18.3783C11.403 19.0011 11.6524 19.3124 11.7653 19.6328C11.8738 19.9408 11.9027 20.1919 11.8669 20.5166C11.8297 20.8542 11.6332 21.265 11.2401 22.0867C10.892 22.8145 10.581 23.5634 10.3095 24.3311C10.0058 25.1903 9.85386 25.6199 9.64145 25.8847C9.43709 26.1394 9.23941 26.2962 8.94482 26.4372C8.63864 26.5837 8.24222 26.6276 7.44939 26.7153L5.54372 26.926C3.77396 27.1218 2.88908 27.2196 2.25063 27.6779C1.89518 27.9331 1.59984 28.2629 1.38532 28.6442C1 29.3292 1 30.2194 1 32C1 33.7806 1 34.6708 1.38532 35.3558C1.59984 35.7371 1.89518 36.0669 2.25063 36.3221C2.88908 36.7804 3.77396 36.8782 5.54372 37.074L7.44939 37.2847C8.24223 37.3724 8.63864 37.4163 8.94482 37.5628C9.23942 37.7038 9.43709 37.8606 9.64145 38.1153C9.85386 38.3801 10.0058 38.8097 10.3095 39.6689C10.581 40.4366 10.892 41.1855 11.2401 41.9133C11.6332 42.735 11.8297 43.1458 11.8669 43.4834C11.9027 43.8081 11.8738 44.0592 11.7653 44.3672C11.6524 44.6876 11.403 44.9989 10.9043 45.6217L9.70475 47.1196C8.59175 48.5094 8.03524 49.2043 7.90784 49.9798C7.83691 50.4116 7.86128 50.8536 7.97925 51.2749C8.19113 52.0317 8.82065 52.6613 10.0797 53.9203C11.3387 55.1794 11.9683 55.8089 12.7251 56.0208C13.1464 56.1387 13.5884 56.1631 14.0202 56.0922C14.7957 55.9648 15.4906 55.4082 16.8804 54.2952L18.3783 53.0957C19.0011 52.597 19.3124 52.3476 19.6328 52.2347C19.9408 52.1262 20.1919 52.0973 20.5166 52.1331C20.8542 52.1703 21.265 52.3668 22.0867 52.7599C22.8145 53.108 23.5634 53.419 24.3311 53.6905C25.1903 53.9943 25.6199 54.1461 25.8847 54.3585C26.1394 54.5629 26.2962 54.7606 26.4372 55.0552C26.5837 55.3614 26.6276 55.7578 26.7153 56.5506L26.926 58.4563C27.1218 60.226 27.2196 61.1109 27.6779 61.7494C27.9331 62.1048 28.2629 62.4002 28.6442 62.6147ZM32 43C38.0751 43 43 38.0751 43 32C43 25.9249 38.0751 21 32 21C25.9249 21 21 25.9249 21 32C21 38.0751 25.9249 43 32 43Z" />
</svg>
