<svg viewBox="0 0 64 64" xmlns="http://www.w3.org/2000/svg">
<path d="M8.09059 5.82579C8.1264 5.25982 8.39484 4.90331 8.68199 4.68188C8.74329 4.63461 8.77394 4.61097 8.98858 4.56217C9.1132 4.53384 9.43729 4.55504 9.55715 4.59937C9.76361 4.67572 9.84684 4.75931 10.0133 4.9265L44.9767 40.0418C45.3528 40.4196 45.5409 40.6085 45.6155 40.8275C45.6812 41.0204 45.6864 41.2287 45.6305 41.4246C45.5669 41.6472 45.3886 41.8452 45.0319 42.2414L41.7632 45.8716C41.3885 46.2878 41.2011 46.4959 40.977 46.5819C40.7798 46.6576 40.5638 46.6689 40.3598 46.6143C40.1279 46.5521 39.9198 46.3648 39.5036 45.99L23.0355 31.1621C5.37843 15.2636 8.01003 7.09889 8.09059 5.82579Z" />
<rect x="48.7964" y="39.5552" width="4" height="14" rx="2" transform="rotate(42 48.7964 39.5552)" />
<path d="M48.7648 47.0625C49.1396 46.6463 49.327 46.4382 49.5511 46.3522C49.7482 46.2765 49.9643 46.2652 50.1683 46.3198C50.4002 46.382 50.6083 46.5693 51.0245 46.9441L58.01 53.2339C58.7026 53.8575 59.0488 54.1692 59.2201 54.5283C59.4485 55.0071 59.4773 55.5569 59.3002 56.0569C59.1674 56.432 58.8556 56.7782 58.2321 57.4707C57.6085 58.1633 57.2968 58.5095 56.9377 58.6808C56.4589 58.9091 55.9091 58.938 55.4091 58.7609C55.034 58.6281 54.6878 58.3163 53.9953 57.6928L47.0097 51.403C46.5935 51.0282 46.3854 50.8408 46.2994 50.6167C46.2237 50.4195 46.2124 50.2035 46.267 49.9995C46.3292 49.7676 46.5165 49.5595 46.8913 49.1433L48.7648 47.0625Z" />
<rect width="4" height="14" rx="2" transform="matrix(-0.743145 0.669131 0.669131 0.743145 15.1912 39.7173)" />
<path d="M15.2361 47.2395C14.8487 46.8092 14.655 46.5941 14.4217 46.5088C14.2335 46.4399 14.0289 46.4292 13.8345 46.478C13.5936 46.5385 13.3784 46.7322 12.9482 47.1196L5.97751 53.396C5.28498 54.0196 4.93872 54.3313 4.76745 54.6904C4.5391 55.1692 4.51028 55.719 4.68734 56.2191C4.82014 56.5941 5.13191 56.9403 5.75546 57.6328C6.37902 58.3254 6.69079 58.6716 7.04986 58.8429C7.52862 59.0713 8.07849 59.1001 8.5785 58.923C8.9535 58.7902 9.29977 58.4784 9.99229 57.8549L16.963 51.5784C17.3932 51.1911 17.6083 50.9974 17.6937 50.7641C17.7626 50.5758 17.7733 50.3712 17.7245 50.1768C17.664 49.9359 17.4703 49.7208 17.0829 49.2906L15.2361 47.2395Z" />
<path fill-rule="evenodd" clip-rule="evenodd" d="M55.0438 4.67713C55.4075 4.86762 55.8503 5.2495 55.897 5.98799C55.9024 6.07388 55.9195 6.19114 55.9411 6.34003C56.2403 8.39797 57.4179 16.4984 40.9521 31.3243L39.6786 32.4709L33.2018 25.9514L54.1935 4.86854C54.4226 4.63843 54.7562 4.52644 55.0438 4.67713ZM24.5257 34.6653L18.61 40.6067C18.2353 40.983 18.2201 41.5867 18.5755 41.9814L22.6258 46.4797C22.9954 46.8901 23.6277 46.9232 24.0381 46.5537L30.8836 40.39L24.5257 34.6653Z" />
</svg>
