<svg viewBox="0 0 32 32" xmlns="http://www.w3.org/2000/svg">
<path d="M19.7405 24.1326C18.7989 25.2416 18.3281 25.7962 17.8204 26.0987C16.699 26.7671 15.3014 26.7671 14.1799 26.0987C13.6723 25.7962 13.2015 25.2416 12.2598 24.1326L3.61748 13.9537C2.02094 12.0733 1.22267 11.1331 1.01317 10.3812C0.54496 8.70079 1.36494 6.92891 2.94894 6.19823C3.65771 5.87129 4.89108 5.87129 7.35782 5.87129H24.6425C27.1093 5.87129 28.3427 5.87129 29.0514 6.19823C30.6354 6.92891 31.4554 8.70079 30.9872 10.3812C30.7777 11.1331 29.9794 12.0733 28.3829 13.9537L19.7405 24.1326Z" />
</svg>
