<svg width="949" height="434" viewBox="0 0 949 434" fill="none" xmlns="http://www.w3.org/2000/svg">
<path fill-rule="evenodd" clip-rule="evenodd" d="M170.875 254.804H240.704C248.133 254.804 255.556 254.804 260.02 260.745C261.886 263.229 262.992 266.316 262.992 269.662C262.992 273.007 261.886 276.095 260.02 278.578C255.556 284.52 248.133 284.52 240.704 284.52H170.875C170.875 283.942 170.875 254.804 170.875 254.804Z" fill="#6675FC"/>
<path fill-rule="evenodd" clip-rule="evenodd" d="M170.87 284.52C167.525 284.52 164.437 283.414 161.954 281.548C156.012 277.084 156.012 269.662 156.012 262.233V171.597C156.012 164.168 156.012 156.746 161.954 152.282C164.437 150.416 167.525 149.31 170.87 149.31C174.216 149.31 177.303 150.416 179.787 152.282C185.729 156.746 185.729 164.168 185.729 171.597L185.729 262.501C185.729 269.662 185.729 277.084 179.787 281.548C177.303 283.414 174.216 284.52 170.87 284.52Z" fill="#1F2446"/>
<path fill-rule="evenodd" clip-rule="evenodd" d="M686.452 284.52C683.106 284.52 680.019 283.414 677.536 281.548C671.594 277.084 671.594 269.662 671.594 262.233V165.654H701.31L701.31 262.501C701.31 269.662 701.31 277.084 695.368 281.548C692.885 283.414 689.798 284.52 686.452 284.52Z" fill="#1F2446"/>
<path fill-rule="evenodd" clip-rule="evenodd" d="M677.597 152.246C680.544 150.057 683.419 149.295 686.526 149.31C693.958 149.347 698.386 155.303 702.819 161.265L741.591 213.409C746.024 219.371 750.453 225.327 748.348 232.455C747.469 235.434 745.651 238.164 742.966 240.16C740.282 242.156 737.144 243.111 734.038 243.096C726.606 243.058 722.177 237.102 717.744 231.141L678.812 178.781C675.266 174.011 671.35 170.563 671.606 164.976C671.862 159.389 673.186 155.522 677.597 152.246Z" fill="#1F2446"/>
<path fill-rule="evenodd" clip-rule="evenodd" d="M782.271 284.544C785.616 284.544 788.704 283.438 791.187 281.572C797.129 277.108 797.129 269.686 797.129 262.256V165.091L767.412 165.678L767.412 262.525C767.412 269.686 767.412 277.108 773.354 281.572C775.838 283.438 778.925 284.544 782.271 284.544Z" fill="#6675FC"/>
<path fill-rule="evenodd" clip-rule="evenodd" d="M791.126 152.269C788.179 150.081 785.304 149.318 782.197 149.334C774.765 149.371 770.336 155.327 765.904 161.289L727.132 213.433C722.699 219.394 718.27 225.351 720.374 232.479C721.254 235.458 723.072 238.187 725.756 240.184C728.441 242.18 731.578 243.135 734.685 243.119C742.117 243.082 746.546 237.126 750.978 231.164L789.911 178.805C793.457 174.035 797.117 169.698 797.117 165C796.861 159.413 795.537 155.545 791.126 152.269Z" fill="#1F2446"/>
<path fill-rule="evenodd" clip-rule="evenodd" d="M63.1379 152.478C66.1054 150.933 69.3545 150.488 72.419 150.996C76.5564 151.683 79.4505 152.592 81.8033 155.734C83.6199 158.159 85.1139 161.029 86.6085 163.9L134.634 256.156C138.064 262.746 141.492 269.33 138.283 276.033C136.941 278.835 134.713 281.241 131.746 282.786C128.778 284.331 125.529 284.776 122.465 284.267C115.133 283.051 111.706 276.468 108.275 269.878L60.1257 177.384C56.8192 171.032 54.8778 164.448 58.0869 157.745C59.4283 154.943 60.1703 154.022 63.1379 152.478Z" fill="#6675FC"/>
<path fill-rule="evenodd" clip-rule="evenodd" d="M7.81723 282.786C4.84968 281.241 2.62177 278.835 1.28043 276.033C-1.92871 269.33 1.49857 262.746 4.92896 256.156L52.9545 163.9C56.3849 157.31 59.8121 150.727 67.144 149.511C70.2085 149.002 73.4575 149.447 76.4251 150.992C79.3926 152.537 81.6206 154.943 82.9619 157.745C86.171 164.448 82.7438 171.032 79.3134 177.622L31.1639 270.116C27.8575 276.468 24.4302 283.051 17.0983 284.267C14.0338 284.776 10.7848 284.331 7.81723 282.786Z" fill="#1F2446"/>
<path fill-rule="evenodd" clip-rule="evenodd" d="M329.854 217.658C329.854 214.312 330.959 211.225 332.825 208.742C337.289 202.8 344.712 202.8 352.141 202.8L371.908 202.8C379.337 202.8 386.76 202.8 391.224 208.742C393.09 211.225 394.195 214.312 394.195 217.658C394.195 221.004 393.09 224.091 391.224 226.574C386.76 232.516 379.337 232.516 371.908 232.516H351.872C344.712 232.516 337.289 232.516 332.825 226.574C330.959 224.091 329.854 221.004 329.854 217.658Z" fill="#6675FC"/>
<path d="M293.451 217.658C293.451 195.099 308.242 178.284 330.597 178.284C339.356 178.284 347.298 181.353 352.455 184.97C357.854 188.755 364.05 192.311 370.714 189.665C372.307 189.032 373.815 188.081 375.176 186.785C376.223 185.788 377.092 184.674 377.783 183.484C384.387 172.111 373.686 162.178 363.628 156.739C353.284 151.145 339.493 148.567 329.111 148.567C289.736 148.567 263.734 180.313 263.734 217.658C263.734 255.003 289.736 286.749 329.111 286.749C339.493 286.749 353.284 284.171 363.628 278.577C373.686 273.138 384.387 263.205 377.783 251.832C377.092 250.642 376.223 249.528 375.176 248.531C373.815 247.235 372.307 246.284 370.714 245.651C364.05 243.005 357.854 246.561 352.455 250.346C347.298 253.963 339.356 257.032 330.597 257.032C308.242 257.032 293.451 240.217 293.451 217.658Z" fill="#1F2446"/>
<path fill-rule="evenodd" clip-rule="evenodd" d="M513.005 211.227C509.863 189.709 489.873 174.812 468.355 177.954C446.837 181.096 431.941 201.086 435.082 222.604C436.268 230.724 430.647 238.268 422.527 239.453C414.407 240.639 406.863 235.017 405.678 226.897C400.165 189.14 426.304 154.062 464.062 148.549C501.819 143.036 536.897 169.176 542.41 206.933C543.595 215.053 537.974 222.597 529.854 223.782C521.734 224.968 514.191 219.347 513.005 211.227Z" fill="#1F2446"/>
<path fill-rule="evenodd" clip-rule="evenodd" d="M479.732 255.877C501.25 252.735 516.146 232.745 513.005 211.227C511.819 203.107 517.441 195.563 525.56 194.378C533.68 193.192 541.224 198.814 542.409 206.933C547.922 244.691 521.783 279.769 484.025 285.282C446.268 290.794 411.19 264.655 405.677 226.898C404.492 218.778 410.113 211.234 418.233 210.048C426.353 208.863 433.896 214.484 435.082 222.604C438.224 244.122 458.214 259.019 479.732 255.877Z" fill="#6675FC"/>
<path fill-rule="evenodd" clip-rule="evenodd" d="M451.506 165.398C450.32 157.279 455.942 149.735 464.062 148.549C500.1 143.288 533.692 166.83 541.47 201.815C541.841 203.485 542.154 205.18 542.405 206.9C543.591 215.02 537.974 222.597 529.854 223.782C521.734 224.968 514.191 219.347 513.005 211.227C509.863 189.709 489.873 174.812 468.355 177.954C460.235 179.14 452.692 173.518 451.506 165.398Z" fill="#1F2446"/>
<path fill-rule="evenodd" clip-rule="evenodd" d="M872.613 177.954C851.095 181.097 836.199 201.088 839.341 222.605C840.527 230.725 834.906 238.269 826.786 239.455C818.666 240.641 811.123 235.02 809.937 226.9C804.423 189.142 830.561 154.064 868.318 148.55C906.076 143.036 941.154 169.174 946.668 206.931C947.854 215.051 942.233 222.595 934.113 223.781C925.993 224.967 918.45 219.345 917.264 211.226C914.121 189.708 894.13 174.812 872.613 177.954Z" fill="#1F2446"/>
<path fill-rule="evenodd" clip-rule="evenodd" d="M883.993 255.877C905.51 252.734 920.406 232.743 917.264 211.226C916.078 203.106 921.699 195.562 929.819 194.376C937.939 193.19 945.483 198.811 946.668 206.931C952.183 244.689 926.044 279.767 888.287 285.281C850.529 290.795 815.451 264.657 809.937 226.9C808.751 218.78 814.372 211.236 822.492 210.05C830.612 208.864 838.156 214.486 839.341 222.605C842.484 244.123 862.475 259.019 883.993 255.877Z" fill="#6675FC"/>
<path fill-rule="evenodd" clip-rule="evenodd" d="M855.763 165.399C854.577 157.279 860.198 149.736 868.318 148.55C904.356 143.287 937.949 166.828 945.729 201.813C946.1 203.482 946.412 205.178 946.663 206.898C947.849 215.018 942.233 222.595 934.113 223.781C925.993 224.967 918.45 219.345 917.264 211.226C914.121 189.708 894.13 174.812 872.613 177.954C864.493 179.14 856.949 173.519 855.763 165.399Z" fill="#1F2446"/>
<path fill-rule="evenodd" clip-rule="evenodd" d="M559.322 191.599C559.322 179.99 564.367 168.856 573.348 160.648C582.328 152.439 594.509 147.827 607.209 147.827C618.262 147.827 628.921 151.32 637.42 157.636C645.163 163.392 649.213 173.255 641.071 180.697C633.392 187.716 624.709 184.446 617.487 179.373C614.556 177.314 610.947 176.181 607.209 176.181C602.736 176.181 598.445 177.805 595.282 180.697C592.119 183.588 590.342 187.51 590.342 191.599C590.342 195.022 591.587 198.328 593.849 201.01C599.405 207.6 602.944 215.546 595.282 222.55C586.829 230.276 575.884 225.991 569.582 218.673C562.969 210.996 559.322 201.469 559.322 191.599Z" fill="#1F2446"/>
<path fill-rule="evenodd" clip-rule="evenodd" d="M656.323 237.187C656.323 250.123 650.701 262.53 640.693 271.677C630.686 280.825 617.112 285.964 602.959 285.964C591.03 285.964 579.513 282.313 570.195 275.688C561.963 269.834 556.341 259.749 565.225 251.628C573.861 243.734 582.323 248.908 590.138 253.913C593.87 256.303 598.341 257.61 602.959 257.61C608.885 257.61 614.569 255.458 618.759 251.628C622.949 247.798 625.303 242.603 625.303 237.187C625.303 232.938 623.855 228.827 621.209 225.403C615.716 218.295 610.175 210.542 618.759 202.696C627.487 194.718 638.442 199.551 644.843 206.961C652.241 215.526 656.323 226.164 656.323 237.187Z" fill="#6675FC"/>
<path fill-rule="evenodd" clip-rule="evenodd" d="M442.435 312.52C444.897 312.52 446.597 314.493 446.231 316.928L442.021 345C441.744 346.847 440.332 348.498 438.483 349.136C436.635 349.774 434.742 349.264 433.742 347.858L420.253 328.9L417.838 345C417.473 347.434 415.181 349.408 412.72 349.408C410.258 349.408 408.558 347.434 408.923 345L413.134 316.928C413.411 315.081 414.823 313.429 416.671 312.791C418.52 312.153 420.413 312.663 421.413 314.069L434.902 333.028L437.316 316.928C437.682 314.493 439.973 312.52 442.435 312.52Z" fill="#6675FC"/>
<path fill-rule="evenodd" clip-rule="evenodd" d="M544.671 312.52C547.133 312.52 548.832 314.493 548.467 316.928L544.257 345C543.98 346.847 542.568 348.498 540.719 349.136C538.871 349.774 536.978 349.264 535.978 347.858L522.489 328.9L520.074 345C519.709 347.434 517.417 349.408 514.955 349.408C512.494 349.408 510.794 347.434 511.159 345L515.369 316.928C515.647 315.081 517.059 313.429 518.907 312.791C520.756 312.153 522.648 312.663 523.649 314.069L537.137 333.028L539.552 316.928C539.917 314.493 542.209 312.52 544.671 312.52Z" fill="#6675FC"/>
<path fill-rule="evenodd" clip-rule="evenodd" d="M586.658 316.928C586.293 319.362 584.001 321.336 581.539 321.336L567.646 321.336L566.863 326.556L578.773 326.556C581.234 326.556 582.934 328.529 582.569 330.964C582.204 333.398 579.912 335.372 577.45 335.372L565.54 335.372L564.758 340.591L578.651 340.591C581.113 340.591 582.812 342.565 582.447 345C582.082 347.434 579.79 349.408 577.329 349.408L558.978 349.408C556.516 349.408 554.816 347.434 555.181 345L559.392 316.928C559.567 315.759 560.205 314.637 561.165 313.811C562.125 312.984 563.328 312.52 564.51 312.52L582.861 312.52C585.323 312.52 587.023 314.493 586.658 316.928Z" fill="#6675FC"/>
<path fill-rule="evenodd" clip-rule="evenodd" d="M499.232 312.52C501.694 312.52 503.393 314.493 503.028 316.928L498.818 345C498.453 347.434 496.161 349.408 493.699 349.408C491.237 349.408 489.538 347.434 489.903 345L494.113 316.928C494.478 314.493 496.77 312.52 499.232 312.52Z" fill="#6675FC"/>
<path fill-rule="evenodd" clip-rule="evenodd" d="M481.995 345C481.63 347.434 479.338 349.408 476.877 349.408L458.159 349.408C456.977 349.408 455.912 348.943 455.2 348.117C454.489 347.29 454.187 346.169 454.362 345L458.573 316.929C458.573 316.928 458.573 316.928 463.03 316.928C467.488 316.928 467.488 316.928 467.488 316.928L463.939 340.591L478.199 340.591C480.661 340.591 482.36 342.565 481.995 345ZM463.691 312.52C466.153 312.52 467.853 314.493 467.488 316.928L463.03 316.928L458.573 316.929C458.938 314.494 461.23 312.52 463.691 312.52Z" fill="#6675FC"/>
<path fill-rule="evenodd" clip-rule="evenodd" d="M384.417 320.657C378.661 320.657 373.303 325.271 372.449 330.964C371.596 336.656 375.57 341.271 381.326 341.271C387.082 341.271 392.44 336.656 393.294 330.964C394.148 325.271 390.173 320.657 384.417 320.657ZM363.534 330.964C365.118 320.402 375.06 311.84 385.74 311.84C396.419 311.84 403.793 320.402 402.209 330.964C400.625 341.525 390.683 350.087 380.003 350.087C369.324 350.087 361.95 341.525 363.534 330.964Z" fill="#6675FC"/>
<path fill-rule="evenodd" clip-rule="evenodd" d="M353.626 74.3228C370.038 74.3228 383.343 61.0182 383.343 44.6063C383.343 28.1943 370.038 14.8897 353.626 14.8897C337.214 14.8897 323.91 28.1943 323.91 44.6063C323.91 61.0182 337.214 74.3228 353.626 74.3228ZM405.631 74.3228C410.554 74.3228 414.546 70.3314 414.546 65.4078C414.546 60.4842 410.554 56.4929 405.631 56.4929C400.707 56.4929 396.716 60.4842 396.716 65.4078C396.716 70.3314 400.707 74.3228 405.631 74.3228Z" fill="url(#paint0_linear_2663_9640)"/>
<path fill-rule="evenodd" clip-rule="evenodd" d="M404.459 12.1509C453.051 -4.35175 505.929 -3.03047 553.637 15.8784C601.344 34.7873 640.769 70.0505 664.862 115.362C666.595 118.622 665.358 122.671 662.097 124.404C658.837 126.138 654.788 124.9 653.054 121.64C630.452 79.1312 593.466 46.0492 548.709 28.31C503.953 10.5707 454.345 9.33118 408.759 24.813C405.262 26.0005 401.465 24.1286 400.278 20.6321C399.09 17.1355 400.962 13.3383 404.459 12.1509Z" fill="#D7D5EA"/>
<path fill-rule="evenodd" clip-rule="evenodd" d="M585.324 402.165C551.698 422.37 513.208 433.044 473.979 433.044C434.75 433.044 396.26 422.369 362.634 402.165C329.008 381.96 301.513 352.987 283.096 318.35C281.363 315.089 282.601 311.041 285.861 309.307C289.122 307.574 293.17 308.811 294.904 312.072C312.181 344.567 337.975 371.748 369.521 390.703C401.067 409.657 437.176 419.671 473.979 419.671C510.782 419.671 546.891 409.657 578.437 390.703C609.983 371.748 635.777 344.567 653.054 312.072C654.788 308.812 658.837 307.574 662.097 309.307C665.357 311.041 666.595 315.09 664.862 318.35C646.445 352.987 618.95 381.961 585.324 402.165Z" fill="#D7D5EA"/>
<path fill-rule="evenodd" clip-rule="evenodd" d="M317.085 77.8593C314.245 75.5 310.029 75.8903 307.67 78.731C298.251 90.0715 290.017 102.346 283.097 115.362C281.363 118.622 282.601 122.671 285.861 124.404C289.122 126.138 293.17 124.9 294.904 121.64C301.397 109.429 309.121 97.9138 317.957 87.2748C320.316 84.4341 319.926 80.2186 317.085 77.8593Z" fill="#D7D5EA"/>
<defs>
<linearGradient id="paint0_linear_2663_9640" x1="391" y1="84" x2="363.5" y2="10.5" gradientUnits="userSpaceOnUse">
<stop stop-color="#FF5391"/>
<stop offset="1" stop-color="#FF5BBD"/>
</linearGradient>
</defs>
</svg>
