<svg viewBox="0 0 46 20" xmlns="http://www.w3.org/2000/svg">
<path d="m 42.5,19.832558 c 0,-2.604412 -0.5046,-5.183537 -1.4852,-7.589722 C 40.0342,9.8367008 38.5971,7.6502704 36.7852,5.8086687 34.9732,3.967057 32.8217,2.5064783 30.4543,1.509813 28.0868,0.51314166 25.5499,0 22.9874,0 20.4261,-2.2773529e-6 17.8897,0.51314066 15.5237,1.5101303 13.1577,2.5071229 11.0084,3.9683164 9.19848,5.8102652 7.38858,7.652214 5.95357,9.8387733 4.97576,12.24482 3.99795,14.650806 3.49663,17.229336 3.50002,19.832558 Z" class="algoheadparts_color_main"/>
<path d="M0.5 20C0.5 18.9392 0.913228 17.9217 1.64937 17.1715C2.3855 16.4214 3.38432 16 4.42538 16H41.5746C42.6157 16 43.6139 16.4214 44.35 17.1715C45.0861 17.9217 45.5 18.9392 45.5 20H0.5Z" fill="#F5F5F5"/>
</svg>
