<svg viewBox="0 0 60 30" fill="none" xmlns="http://www.w3.org/2000/svg">
<path d="M12.347 0H3.65301C1.91165 0 0.5 1.3828 0.5 3.08857V26.9114C0.5 28.6172 1.91165 30 3.65301 30H12.347C14.0883 30 15.5 28.6172 15.5 26.9114V3.08857C15.5 1.3828 14.0883 0 12.347 0Z" class="algoeye_color_main"/>
<path d="M56.347 0H47.653C45.9117 0 44.5 1.36319 44.5 3.04478V26.9552C44.5 28.6368 45.9117 30 47.653 30H56.347C58.0883 30 59.5 28.6368 59.5 26.9552V3.04478C59.5 1.36319 58.0883 0 56.347 0Z" class="algoeye_color_main"/>
</svg>
