<svg width="142" height="207" viewBox="0 0 142 207" fill="none" xmlns="http://www.w3.org/2000/svg">
<g clip-path="url(#clip0_1918_4404)">
<path d="M90.5 20C90.5 17.3736 89.9954 14.7727 89.0148 12.3462C88.0342 9.91975 86.5971 7.71486 84.7852 5.85771C82.9732 4.00055 80.8217 2.52764 78.4543 1.52256C76.0868 0.517474 73.5499 0 70.9874 0C68.4261 -2.29657e-06 65.8897 0.517473 63.5237 1.52288C61.1577 2.52829 59.0084 4.00182 57.1985 5.85932C55.3886 7.71682 53.9536 9.92184 52.9758 12.3482C51.998 14.7745 51.4966 17.3748 51.5 20H90.5Z" class="algo_color_main"/>
<path d="M48.5 20C48.5 18.9392 48.9132 17.9217 49.6494 17.1715C50.3855 16.4214 51.3843 16 52.4254 16H89.5746C90.6157 16 91.6139 16.4214 92.35 17.1715C93.0861 17.9217 93.5 18.9392 93.5 20H48.5Z" fill="#F5F5F5"/>
<path d="M110 28H32C18.7452 28 8 38.7452 8 52V85C8 98.2548 18.7452 109 32 109H110C123.255 109 134 98.2548 134 85V52C134 38.7452 123.255 28 110 28Z" fill="#2A2C33"/>
<path d="M53.347 54H44.653C42.9117 54 41.5 55.3828 41.5 57.0886V80.9114C41.5 82.6172 42.9117 84 44.653 84H53.347C55.0883 84 56.5 82.6172 56.5 80.9114V57.0886C56.5 55.3828 55.0883 54 53.347 54Z" class="algo_color_main"/>
<path d="M97.347 54H88.653C86.9117 54 85.5 55.3632 85.5 57.0448V80.9552C85.5 82.6368 86.9117 84 88.653 84H97.347C99.0883 84 100.5 82.6368 100.5 80.9552V57.0448C100.5 55.3632 99.0883 54 97.347 54Z" class="algo_color_main"/>
<path fill-rule="evenodd" clip-rule="evenodd" d="M32 36C23.1634 36 16 43.1634 16 52V85C16 93.8366 23.1634 101 32 101H110C118.837 101 126 93.8366 126 85V52C126 43.1634 118.837 36 110 36H32ZM0 52C0 34.3269 14.3269 20 32 20H110C127.673 20 142 34.3269 142 52V85C142 102.673 127.673 117 110 117H32C14.3269 117 0 102.673 0 85V52Z" fill="#F5F5F5"/>
<path d="M47.1612 106H94.838L106.756 154.67C108.711 162.652 109.688 166.642 107.586 169.321C105.484 172 101.375 172 93.1577 172H48.8415C40.6241 172 36.5155 172 34.4135 169.321C32.3115 166.642 33.2888 162.652 35.2432 154.67L47.1612 106Z" fill="#F5F5F5"/>
<path fill-rule="evenodd" clip-rule="evenodd" d="M33.0783 131.785L25.9335 151.526C24.7995 154.659 24.2325 156.226 23.0063 156.957C22.7099 157.134 22.3918 157.272 22.06 157.367C20.6875 157.76 19.1571 157.102 16.0963 155.785C12.9669 154.438 11.4022 153.765 10.7471 152.47C10.5889 152.158 10.4725 151.826 10.4008 151.483C10.1039 150.062 10.9054 148.559 12.5085 145.553L20.5655 130.445H20.5656C21.4526 128.781 21.8961 127.95 22.5247 127.32C23.137 126.706 23.8749 126.233 24.6877 125.932C25.5221 125.623 26.463 125.566 28.3447 125.452C30.6824 125.311 31.8512 125.241 32.6192 125.671C33.3601 126.086 33.8905 126.795 34.0787 127.623C34.2738 128.482 33.8753 129.583 33.0783 131.785ZM109.376 131.785L116.521 151.526C117.655 154.659 118.222 156.226 119.448 156.957C119.744 157.134 120.062 157.272 120.394 157.367C121.767 157.76 123.297 157.102 126.358 155.785C129.487 154.438 131.052 153.765 131.707 152.47C131.865 152.158 131.982 151.826 132.053 151.483C132.35 150.062 131.549 148.559 129.946 145.553L121.889 130.445H121.888C121.001 128.781 120.558 127.95 119.929 127.32C119.317 126.706 118.579 126.233 117.766 125.932C116.932 125.623 115.991 125.566 114.109 125.452C111.772 125.311 110.603 125.241 109.835 125.671C109.094 126.086 108.564 126.795 108.375 127.623C108.18 128.482 108.579 129.583 109.376 131.785Z" fill="#587A86"/>
<path d="M29.9016 182.288C30.4518 179.913 30.7269 178.725 31.8198 177.856C32.9127 176.988 34.2718 176.988 36.9901 176.988H52.9653C55.6835 176.988 57.0427 176.988 58.1355 177.856C59.2284 178.725 59.5035 179.913 60.0537 182.288C60.5399 184.387 60.9514 186.851 60.9514 189.179C60.9514 194.868 29.0039 194.868 29.0039 189.179C29.0039 186.851 29.4154 184.387 29.9016 182.288Z" fill="#46626D"/>
<path d="M59.8567 186.669H30.1006C27.8914 186.669 26.1006 188.46 26.1006 190.669V202.999C26.1006 205.208 27.8914 206.999 30.1006 206.999H59.8567C62.0658 206.999 63.8567 205.208 63.8567 202.999V190.669C63.8567 188.46 62.0658 186.669 59.8567 186.669Z" fill="#587A86"/>
<path d="M82.1798 182.288C82.73 179.913 83.0051 178.725 84.098 177.856C85.1909 176.988 86.55 176.988 89.2683 176.988H105.243C107.962 176.988 109.321 176.988 110.414 177.856C111.507 178.725 111.782 179.913 112.332 182.288C112.818 184.387 113.23 186.851 113.23 189.179C113.23 194.868 81.2822 194.868 81.2822 189.179C81.2822 186.851 81.6936 184.387 82.1798 182.288Z" fill="#46626D"/>
<path d="M112.134 186.669H82.3779C80.1688 186.669 78.3779 188.46 78.3779 190.669V202.999C78.3779 205.208 80.1688 206.999 82.3779 206.999H112.134C114.343 206.999 116.134 205.208 116.134 202.999V190.669C116.134 188.46 114.343 186.669 112.134 186.669Z" fill="#587A86"/>
</g>
<defs>
<clipPath id="clip0_1918_4404">
<rect width="142" height="207" fill="white"/>
</clipPath>
</defs>
</svg>
