<svg width="142" height="118" viewBox="0 0 142 118" fill="none" xmlns="http://www.w3.org/2000/svg">
<path d="M90.5 20.5C90.5 17.8736 89.9954 15.2727 89.0148 12.8462C88.0342 10.4198 86.5971 8.21486 84.7852 6.35771C82.9732 4.50055 80.8217 3.02764 78.4543 2.02256C76.0868 1.01747 73.5499 0.5 70.9874 0.5C68.4261 0.499998 65.8897 1.01747 63.5237 2.02288C61.1577 3.02829 59.0084 4.50182 57.1985 6.35932C55.3886 8.21682 53.9536 10.4218 52.9758 12.8482C51.998 15.2745 51.4966 17.8748 51.5 20.5H90.5Z" class="algohead_color_main"/>
<path d="M48.5 20.5C48.5 19.4392 48.9132 18.4217 49.6494 17.6715C50.3855 16.9214 51.3843 16.5 52.4254 16.5H89.5746C90.6157 16.5 91.6139 16.9214 92.35 17.6715C93.0861 18.4217 93.5 19.4392 93.5 20.5H48.5Z" fill="#F5F5F5"/>
<path d="M110 28.5H32C18.7452 28.5 8 39.2452 8 52.5V85.5C8 98.7548 18.7452 109.5 32 109.5H110C123.255 109.5 134 98.7548 134 85.5V52.5C134 39.2452 123.255 28.5 110 28.5Z" fill="#2A2C33"/>
<path d="M53.347 54.5H44.653C42.9117 54.5 41.5 55.8828 41.5 57.5886V81.4114C41.5 83.1172 42.9117 84.5 44.653 84.5H53.347C55.0883 84.5 56.5 83.1172 56.5 81.4114V57.5886C56.5 55.8828 55.0883 54.5 53.347 54.5Z" class="algohead_color_main"/>
<path d="M97.347 54.5H88.653C86.9117 54.5 85.5 55.8632 85.5 57.5448V81.4552C85.5 83.1368 86.9117 84.5 88.653 84.5H97.347C99.0883 84.5 100.5 83.1368 100.5 81.4552V57.5448C100.5 55.8632 99.0883 54.5 97.347 54.5Z" class="algohead_color_main"/>
<path fill-rule="evenodd" clip-rule="evenodd" d="M32 36.5C23.1634 36.5 16 43.6634 16 52.5V85.5C16 94.3366 23.1634 101.5 32 101.5H110C118.837 101.5 126 94.3366 126 85.5V52.5C126 43.6634 118.837 36.5 110 36.5H32ZM0 52.5C0 34.8269 14.3269 20.5 32 20.5H110C127.673 20.5 142 34.8269 142 52.5V85.5C142 103.173 127.673 117.5 110 117.5H32C14.3269 117.5 0 103.173 0 85.5V52.5Z" fill="#F5F5F5"/>
</svg>
