<svg width="455" height="94" viewBox="0 0 455 94" fill="none" xmlns="http://www.w3.org/2000/svg">
<path d="M129.19 26.8752L171.11 0.429395C173.021 -0.776757 175.153 1.61786 173.733 3.37698L164.082 15.3356C162.23 17.6305 162.41 20.9535 164.499 23.0347C165.679 24.2101 166.445 25.7373 166.682 27.386L167.07 30.0949C167.211 31.0797 168.055 31.8109 169.05 31.8109H441.828C444.341 31.8109 446.587 33.3771 447.457 35.7349L453.494 52.1055C454.467 54.7438 454.483 57.64 453.538 60.2885L444.357 86.0311C442.653 90.8096 438.128 94 433.054 94H11.78C9.21505 94 6.93377 92.3696 6.10324 89.9428L1.36309 76.0923C0.480722 73.5141 0.502156 70.7123 1.42386 68.1479L11.6299 39.7521C13.3422 34.988 17.8601 31.8109 22.9226 31.8109H112.116C118.159 31.8109 124.079 30.0997 129.19 26.8752Z" fill="url(#paint0_linear_1130_1733)"/>
<defs>
<linearGradient id="paint0_linear_1130_1733" x1="206.273" y1="-3.51244" x2="206.273" y2="101.96" gradientUnits="userSpaceOnUse">
<stop stop-color="#5B6EF2"/>
<stop offset="1" stop-color="#605DF8"/>
</linearGradient>
</defs>
</svg>
