<svg width="232" height="42" viewBox="0 0 232 42" fill="none" xmlns="http://www.w3.org/2000/svg">
<mask id="path-1-outside-1_3494_12684" maskUnits="userSpaceOnUse" x="0" y="0" width="232" height="42" fill="black">
<rect fill="white" width="232" height="42"/>
<path d="M116 41C58 41 58 1 0 1H232C174 1 174 41 116 41Z"/>
</mask>
<path d="M116 41C58 41 58 1 0 1H232C174 1 174 41 116 41Z" fill="#F5F6F8"/>
<path d="M0 2C14.3763 2 25.1206 4.47696 34.0551 8.17402C43.0061 11.8778 50.1744 16.8178 57.4323 21.8232C64.6744 26.8178 72.0061 31.8778 81.1801 35.674C90.3706 39.477 101.376 42 116 42V40C101.624 40 90.8794 37.523 81.9449 33.826C72.9939 30.1222 65.8256 25.1822 58.5677 20.1768C51.3256 15.1822 43.9939 10.1222 34.8199 6.32598C25.6294 2.52304 14.6237 0 0 0V2ZM116 42C130.624 42 141.629 39.477 150.82 35.674C159.994 31.8778 167.326 26.8178 174.568 21.8232C181.826 16.8178 188.994 11.8778 197.945 8.17402C206.879 4.47696 217.624 2 232 2V0C217.376 0 206.371 2.52304 197.18 6.32598C188.006 10.1222 180.674 15.1822 173.432 20.1768C166.174 25.1822 159.006 30.1222 150.055 33.826C141.121 37.523 130.376 40 116 40V42ZM232 0H0V2H232V0Z" fill="#D7DAE4" mask="url(#path-1-outside-1_3494_12684)"/>
<rect width="232" height="1" fill="#F5F6F8"/>
</svg>
