<svg viewBox="0 0 50 59" xmlns="http://www.w3.org/2000/svg">
<path d="M3.41017e-06 9.3143L0.0277963 32.3311C0.0277962 33.7466 0.1575 34.9829 0.416903 36.0398C0.676306 37.1156 1.10246 38.1065 1.69539 39.0125C2.26978 39.9373 3.05726 40.8433 4.05781 41.7303L19.4275 56.084C20.6318 57.1787 21.6509 57.9336 22.4847 58.3489C23.337 58.783 24.1894 59 25.0417 59C25.5976 59 26.1442 58.9056 26.6815 58.7169C27.2374 58.547 27.8303 58.245 28.4603 57.8109C29.0902 57.3957 29.8129 56.8201 30.6281 56.084L46.0534 41.7586C47.0539 40.8527 47.8414 39.9467 48.4158 39.0408C48.9902 38.1348 49.3978 37.144 49.6387 36.0681C49.8796 34.9923 50 33.7561 50 32.3594L50 9.3143C50 6.29447 49.2218 3.98241 47.6654 2.37812C46.1275 0.792706 43.8855 -2.69001e-07 40.9394 -3.98611e-07L8.58811 -1.82187e-06C5.64202 -1.95148e-06 3.47416 0.792704 2.0845 2.37812C0.694835 3.9824 3.54132e-06 6.29446 3.41017e-06 9.3143Z" />
</svg>
