<svg viewBox="0 0 184 53" xmlns="http://www.w3.org/2000/svg">
<path d="M165.557 41.0577C169.777 47.9803 176.899 53 185.006 53H186C197.046 53 206 61.9543 206 73V134C206 145.046 197.046 154 186 154H150.329C146.01 154 141.847 155.464 138.198 157.776C124.979 166.151 109.306 171 92.5 171C75.6941 171 60.0206 166.151 46.8023 157.776C43.1532 155.464 38.9905 154 34.6706 154H-2.00002C-13.0457 154 -22 145.046 -22 134V73C-22 61.9543 -13.0457 53 -2.00001 53H-0.00639534C8.10111 53 15.2233 47.9803 19.4435 41.0577C34.4525 16.4378 61.5566 0 92.5 0C123.443 0 150.547 16.4378 165.557 41.0577Z" />
</svg>
