<svg viewBox="0 0 75 75" fill="none" xmlns="http://www.w3.org/2000/svg">
<path d="M37.4967 74.9877C58.2024 74.9877 74.9876 58.2024 74.9876 37.4968C74.9876 16.7911 58.2024 0.00585938 37.4967 0.00585938C16.791 0.00585938 0.00579834 16.7911 0.00579834 37.4968C0.00579834 58.2024 16.791 74.9877 37.4967 74.9877Z" fill="url(#paint0_linear_632_2251)"/>
<path d="M37.9637 33.0667C37.3372 32.7176 36.8279 32.1911 36.5 31.5533C36.172 30.9156 36.0399 30.1951 36.1204 29.4824C36.2008 28.7698 36.4901 28.0968 36.952 27.5482C37.4139 26.9996 38.0277 26.5999 38.7162 26.3992C39.4048 26.1985 40.1372 26.2059 40.8215 26.4204C41.5059 26.6349 42.1115 27.047 42.5622 27.6049C43.0129 28.1627 43.2887 28.8413 43.3547 29.5554C43.4207 30.2695 43.2741 30.9872 42.9334 31.6182C42.7045 32.042 42.3938 32.4161 42.0192 32.7187C41.6446 33.0214 41.2136 33.2466 40.7513 33.3814C40.289 33.5161 39.8045 33.5577 39.3259 33.5037C38.8474 33.4497 38.3843 33.3012 37.9637 33.0667Z" fill="#AAB1FF"/>
<path d="M54.6121 70.8545L0.163635 40.9879C0.735065 47.0892 2.79314 52.9575 6.15777 58.0793C9.5224 63.201 14.091 67.42 19.4638 70.3672C24.8366 73.3143 30.8499 74.8998 36.9773 74.9847C43.1047 75.0697 49.1596 73.6516 54.6121 70.8545Z" fill="#AAB1FF"/>
<path d="M38.3697 47.794C38.6596 47.2655 38.8425 46.6852 38.908 46.086C38.9735 45.4869 38.9203 44.8807 38.7515 44.3021C38.5826 43.7235 38.3014 43.1839 37.9239 42.714C37.5465 42.2441 37.0801 41.8533 36.5515 41.5637L2.87877 23.0909C1.66325 26.0032 0.822186 29.0579 0.375732 32.1819L32.1333 49.6061C33.2007 50.1923 34.4572 50.3307 35.6266 49.9909C36.796 49.6511 37.7826 48.8609 38.3697 47.794Z" fill="#AAB1FF"/>
<path d="M52.4182 25.3514C53.8597 24.5585 55.4781 24.1422 57.1234 24.1412C58.7686 24.1401 60.3875 24.5543 61.8301 25.3454C63.2726 26.1365 64.4922 27.2789 65.3758 28.6667C66.2594 30.0546 66.7784 31.6429 66.8848 33.2847C66.9264 34.109 67.1754 34.9094 67.6088 35.6118C68.0421 36.3142 68.6457 36.8959 69.3636 37.3029L74.8909 40.3332C75.4322 33.151 73.8942 25.9648 70.4607 19.6333C67.0271 13.3018 61.8433 8.09274 55.5285 4.62855C49.2137 1.16436 42.035 -0.408493 34.8502 0.097999C27.6655 0.604491 20.7785 3.16888 15.0121 7.48473L47.697 25.412C48.4247 25.8023 49.2397 26.0015 50.0654 25.9909C50.8912 25.9803 51.7007 25.7603 52.4182 25.3514Z" fill="#AAB1FF"/>
<path d="M60.103 28.3758C59.0423 27.7941 57.8329 27.5401 56.6278 27.6459C55.4228 27.7516 54.2761 28.2125 53.333 28.9701C52.3899 29.7276 51.6926 30.7479 51.3295 31.9018C50.9663 33.0558 50.9536 34.2915 51.2929 35.4526C51.6321 36.6138 52.3082 37.6483 53.2355 38.4251C54.1628 39.202 55.2996 39.6864 56.5023 39.817C57.7049 39.9476 58.9193 39.7186 59.9918 39.1589C61.0642 38.5992 61.9466 37.734 62.5272 36.6728C62.8136 36.1302 63.0179 35.5481 63.1333 34.9455C63.3928 33.6705 63.2389 32.346 62.694 31.1644C62.149 29.9829 61.2413 29.006 60.103 28.3758Z" fill="#AAB1FF"/>
<path d="M40.7443 33.3862C42.6852 32.8205 43.8 30.7885 43.2343 28.8475C42.6686 26.9066 40.6365 25.7918 38.6956 26.3575C36.7546 26.9232 35.6398 28.9553 36.2056 30.8962C36.7713 32.8372 38.8033 33.952 40.7443 33.3862Z" fill="#AAB1FF"/>
<defs>
<linearGradient id="paint0_linear_632_2251" x1="75.7714" y1="29.4859" x2="3.66664" y2="50.6931" gradientUnits="userSpaceOnUse">
<stop stop-color="#556EFF"/>
<stop offset="1" stop-color="#B69DFF"/>
</linearGradient>
</defs>
</svg>
