<svg viewBox="0 0 75 75" fill="none" xmlns="http://www.w3.org/2000/svg">
<path d="M8.3393 13.9251C2.87196 20.6882 -0.0753781 29.1409 0.00159232 37.8372C0.0785628 46.5334 3.175 54.9327 8.76119 61.5979C8.96644 60.8399 9.32989 60.134 9.82759 59.5265C10.7879 58.3407 12.1794 57.5843 13.6968 57.4232C15.2141 57.2621 16.7335 57.7095 17.9214 58.6673L23.5908 63.2704C24.1758 63.7662 24.8539 64.14 25.5854 64.37C26.3169 64.6 27.0869 64.6815 27.8503 64.6097C28.6137 64.5379 29.3551 64.3142 30.0308 63.9517C30.7065 63.5893 31.303 63.0955 31.7852 62.4993C32.2673 61.9031 32.6255 61.2166 32.8385 60.48C33.0516 59.7434 33.1154 58.9717 33.0259 58.2102C32.9365 57.4486 32.6957 56.7126 32.3179 56.0454C31.94 55.3783 31.4326 54.7933 30.8254 54.325L19.1872 44.9117C18.0406 43.9398 17.3199 42.5579 17.1791 41.0614C17.0382 39.565 17.4886 38.0728 18.4338 36.9041C19.379 35.7354 20.7438 34.983 22.2367 34.8077C23.7295 34.6325 25.2316 35.0483 26.4218 35.9663L29.1146 38.1374C29.6996 38.6332 30.3776 39.0071 31.1091 39.2371C31.8406 39.4671 32.6106 39.5485 33.374 39.4767C34.1374 39.4049 34.8788 39.1812 35.5545 38.8188C36.2302 38.4564 36.8267 37.9626 37.3089 37.3664C37.791 36.7702 38.1492 36.0836 38.3622 35.347C38.5753 34.6105 38.639 33.8387 38.5496 33.0772C38.4602 32.3157 38.2195 31.5797 37.8416 30.9125C37.4638 30.2453 36.9563 29.6604 36.3491 29.1921L33.6564 27.0133C32.5098 26.0414 31.789 24.6595 31.6482 23.163C31.5073 21.6665 31.9577 20.1744 32.9029 19.0057C33.8481 17.837 35.213 17.0846 36.7058 16.9093C38.1987 16.734 39.7007 17.1499 40.8909 18.0679L49.5524 25.0646C50.7397 26.024 52.2594 26.4724 53.7773 26.3112C55.2952 26.1501 56.6868 25.3926 57.6462 24.2054C58.6056 23.0181 59.054 21.4984 58.8929 19.9805C58.7317 18.4626 57.9742 17.0709 56.7869 16.1115L51.1099 11.5084C50.5224 11.033 50.0343 10.4464 49.6735 9.78233C49.3128 9.11822 49.0865 8.38956 49.0074 7.63795C48.9283 6.88633 48.9981 6.1265 49.2127 5.40185C49.4273 4.67721 49.7826 4.00195 50.2582 3.41464C50.5136 3.09396 50.8044 2.80314 51.1251 2.54771C43.7085 -0.338192 35.5665 -0.791308 27.8754 1.25384C20.1844 3.29898 13.3429 7.73648 8.3393 13.9251Z" fill="url(#paint0_linear_632_2260)"/>
<path d="M51.1099 11.5154L56.787 16.1185C57.9742 17.0779 58.7318 18.4696 58.8929 19.9875C59.054 21.5054 58.6056 23.0251 57.6462 24.2123C56.6869 25.3996 55.2952 26.1571 53.7773 26.3183C52.2595 26.4794 50.7397 26.031 49.5525 25.0716L40.8909 18.0749C39.7008 17.1569 38.1987 16.741 36.7059 16.9163C35.2131 17.0916 33.8481 17.844 32.9029 19.0127C31.9577 20.1814 31.5074 21.6735 31.6482 23.17C31.789 24.6664 32.5098 26.0484 33.6564 27.0202L36.3492 29.199C36.9563 29.6673 37.4638 30.2523 37.8417 30.9195C38.2196 31.5867 38.4603 32.3227 38.5497 33.0842C38.6391 33.8457 38.5753 34.6175 38.3623 35.354C38.1492 36.0906 37.7911 36.7772 37.3089 37.3734C36.8267 37.9696 36.2303 38.4634 35.5545 38.8258C34.8788 39.1882 34.1375 39.4119 33.3741 39.4837C32.6107 39.5555 31.8406 39.4741 31.1091 39.2441C30.3777 39.0141 29.6996 38.6402 29.1147 38.1444L26.4218 35.9733C25.2317 35.0553 23.7295 34.6395 22.2367 34.8147C20.7439 34.99 19.379 35.7424 18.4338 36.9111C17.4887 38.0798 17.0383 39.572 17.1791 41.0684C17.3199 42.5649 18.0406 43.9468 19.1872 44.9187L30.8255 54.332C31.4326 54.8003 31.94 55.3853 32.3179 56.0524C32.6958 56.7196 32.9366 57.4556 33.026 58.2172C33.1154 58.9787 33.0517 59.7504 32.8386 60.487C32.6255 61.2236 32.2674 61.9101 31.7852 62.5063C31.303 63.1025 30.7066 63.5963 30.0308 63.9588C29.3551 64.3212 28.6138 64.5448 27.8504 64.6167C27.087 64.6885 26.3169 64.607 25.5854 64.377C24.854 64.147 24.1758 63.7732 23.5909 63.2774L17.9215 58.6743C16.7336 57.7165 15.2142 57.2691 13.6968 57.4302C12.1794 57.5913 10.788 58.3477 9.82763 59.5335C9.32992 60.141 8.96648 60.8469 8.76123 61.6049C10.3132 63.4569 12.0425 65.1528 13.9244 66.6684C18.1329 70.0669 23.0269 72.5147 28.2705 73.8439C33.5141 75.173 38.9832 75.3519 44.3024 74.3684C49.6217 73.3849 54.6653 71.2622 59.0869 68.146C63.5086 65.0298 67.2038 60.9939 69.9188 56.3152C72.6339 51.6365 74.3046 46.4258 74.8163 41.0406C75.328 35.6554 74.6685 30.2233 72.8832 25.117C71.0978 20.0106 68.2289 15.351 64.4733 11.4578C60.7176 7.56464 56.164 4.53008 51.1252 2.56238C50.8045 2.81781 50.5137 3.10862 50.2582 3.4293C49.3 4.61498 48.8515 6.13246 49.0112 7.64854C49.1708 9.16462 49.9257 10.5554 51.1099 11.5154Z" fill="url(#paint1_linear_632_2260)"/>
<defs>
<linearGradient id="paint0_linear_632_2260" x1="47" y1="-5.96958e-05" x2="21" y2="70.9999" gradientUnits="userSpaceOnUse">
<stop stop-color="#FF8DCA"/>
<stop offset="1" stop-color="#EF33FF"/>
</linearGradient>
<linearGradient id="paint1_linear_632_2260" x1="61.5" y1="10.4999" x2="31" y2="74.9999" gradientUnits="userSpaceOnUse">
<stop stop-color="#EA54D3"/>
<stop offset="1" stop-color="#BA3ADE"/>
</linearGradient>
</defs>
</svg>
