<svg viewBox="0 0 76 75" fill="none" xmlns="http://www.w3.org/2000/svg">
<path d="M62.4335 8.78006C59.3415 6.22062 55.8558 4.16406 52.1076 2.68784C47.4749 0.858709 42.5225 -0.0519029 37.5331 0.00802592C32.5437 0.0679548 27.6152 1.09726 23.029 3.03712C18.4428 4.97697 14.2887 7.78939 10.8041 11.3138C7.3194 14.8381 4.57242 19.0054 2.71999 23.5776C0.866475 28.1494 -0.056266 33.0367 0.0044619 37.9604C0.0651898 42.8841 1.1082 47.7478 3.07393 52.2737C5.03965 56.7995 7.88958 60.8989 11.4609 64.3377C15.0323 67.7766 19.2552 70.4874 23.8883 72.3154C30.1736 74.8053 37.0216 75.5822 43.7155 74.5649C50.257 73.5804 56.4245 70.9268 61.6073 66.8669C66.7901 62.8071 70.8085 57.4817 73.2645 51.4181C76.2371 44.0906 76.7904 36.0242 74.8456 28.3683C72.9008 20.7123 68.5571 13.8573 62.4335 8.78006Z" fill="url(#paint0_linear_632_2752)"/>
<path d="M62.4336 8.78027C62.8539 9.98997 62.8202 11.3083 62.3386 12.4956C62.0753 13.1499 61.6838 13.7466 61.1866 14.2515C60.6895 14.7564 60.0963 15.1596 59.4411 15.4382C58.7859 15.7167 58.0815 15.8651 57.3682 15.8748C56.6548 15.8845 55.9465 15.7554 55.2838 15.4948L48.5139 12.8218C47.8512 12.5607 47.1428 12.4311 46.4293 12.4406C45.7158 12.4501 45.0112 12.5984 44.3559 12.877C43.7006 13.1556 43.1074 13.559 42.6103 14.0642C42.1132 14.5694 41.722 15.1664 41.459 15.821C41.1944 16.475 41.0632 17.174 41.0728 17.8781C41.0824 18.5822 41.2327 19.2776 41.515 19.9243C41.7973 20.571 42.2061 21.1564 42.7181 21.6469C43.23 22.1375 43.8349 22.5235 44.4983 22.783L53.521 26.3446C54.1844 26.6041 54.7893 26.9902 55.3012 27.4807C55.8131 27.9713 56.222 28.5567 56.5043 29.2034C56.7866 29.8501 56.9369 30.5454 56.9465 31.2495C56.9561 31.9536 56.8248 32.6527 56.5602 33.3066C56.2969 33.9609 55.9054 34.5576 55.4083 35.0625C54.9111 35.5674 54.318 35.9707 53.6628 36.2492C53.0076 36.5278 52.3031 36.6762 51.5898 36.6859C50.8765 36.6956 50.1682 36.5665 49.5054 36.3059L35.5553 30.7798C34.2167 30.2545 32.7216 30.2754 31.3986 30.8378C30.0756 31.4003 29.0332 32.4582 28.5005 33.779C28.237 34.4328 28.1066 35.1315 28.1167 35.835C28.1269 36.5386 28.2774 37.2332 28.5596 37.8794C28.8418 38.5255 29.2503 39.1105 29.7616 39.6008C30.2729 40.0912 30.8771 40.4774 31.5397 40.7373L41.1817 44.5463C41.8449 44.8054 42.4498 45.1911 42.9617 45.6813C43.4735 46.1715 43.8824 46.7566 44.1647 47.403C44.447 48.0494 44.5973 48.7444 44.607 49.4483C44.6166 50.1521 44.4854 50.8509 44.2209 51.5046C43.9576 52.1585 43.5663 52.7547 43.0694 53.2593C42.5725 53.7639 41.9797 54.167 41.3249 54.4455C40.6702 54.724 39.9662 54.8725 39.2533 54.8825C38.5404 54.8925 37.8324 54.7639 37.1699 54.5039L32.4173 52.6293C31.7545 52.3687 31.0462 52.2396 30.3329 52.2493C29.6196 52.259 28.9151 52.4074 28.2599 52.686C27.6047 52.9645 27.0116 53.3678 26.5144 53.8727C26.0173 54.3776 25.6258 54.9743 25.3625 55.6286C25.0985 56.2823 24.9677 56.981 24.9776 57.6847C24.9875 58.3884 25.1379 59.0833 25.4201 59.7295C25.7024 60.3758 26.1111 60.9608 26.6227 61.4511C27.1343 61.9414 27.7388 62.3273 28.4017 62.5868L40.8208 67.4868C41.4838 67.7467 42.0884 68.133 42.6001 68.6237C43.1117 69.1143 43.5204 69.6996 43.8026 70.3462C44.0849 70.9928 44.2352 71.6879 44.2451 72.3919C44.2549 73.0959 44.1241 73.7948 43.86 74.4489L43.7802 74.6176C50.3159 73.6179 56.4739 70.9517 61.6451 66.8829C66.8163 62.814 70.8216 57.4834 73.2647 51.4184C76.2372 44.0909 76.7906 36.0244 74.8458 28.3685C72.901 20.7125 68.5573 13.8575 62.4336 8.78027ZM51.6595 60.1987L51.2302 60.0225C50.5673 59.763 49.9628 59.377 49.4512 58.8868C48.9395 58.3965 48.5309 57.8115 48.2486 57.1652C47.9664 56.5189 47.816 55.824 47.8061 55.1204C47.7962 54.4167 47.9269 53.718 48.1909 53.0642C48.4543 52.4099 48.8458 51.8132 49.3429 51.3083C49.8401 50.8034 50.4332 50.4002 51.0884 50.1216C51.7436 49.8431 52.448 49.6947 53.1614 49.685C53.8747 49.6752 54.583 49.8044 55.2458 50.065L55.6637 50.2299C56.3262 50.4898 56.9305 50.876 57.4418 51.3663C57.9531 51.8567 58.3616 52.4416 58.6438 53.0878C58.926 53.7339 59.0765 54.4286 59.0866 55.1322C59.0968 55.8357 58.9664 56.5344 58.7029 57.1882C58.1732 58.5089 57.1336 59.5679 55.8128 60.1325C54.492 60.697 52.9981 60.7208 51.6595 60.1987Z" fill="url(#paint1_linear_632_2752)"/>
<defs>
<linearGradient id="paint0_linear_632_2752" x1="11.1148" y1="64.0001" x2="64.1456" y2="10.2709" gradientUnits="userSpaceOnUse">
<stop stop-color="#FF8E38"/>
<stop offset="0.21" stop-color="#FF9236"/>
<stop offset="0.43" stop-color="#FF9F2F"/>
<stop offset="0.66" stop-color="#FFB425"/>
<stop offset="0.88" stop-color="#FFD116"/>
<stop offset="1" stop-color="#FFE30D"/>
</linearGradient>
<linearGradient id="paint1_linear_632_2752" x1="28.8115" y1="63.5961" x2="72.9085" y2="18.9168" gradientUnits="userSpaceOnUse">
<stop stop-color="#FF5703"/>
<stop offset="1" stop-color="#FF8D30"/>
</linearGradient>
</defs>
</svg>
