<svg viewBox="0 0 38 38" xmlns="http://www.w3.org/2000/svg">
<path d="M32.5641 13.8941H28.3141C27.1419 13.8941 26.0176 13.4283 25.1887 12.5994C24.3597 11.7705 23.8937 10.6463 23.8937 9.47404V5.21403C23.9134 3.94529 23.4643 2.71393 22.632 1.75614C21.7997 0.798352 20.643 0.18162 19.384 0.0240853C18.6874 -0.0445192 17.9844 0.0338194 17.32 0.254188C16.6556 0.474556 16.0445 0.831945 15.527 1.30326C15.0095 1.77458 14.5969 2.34934 14.3156 2.99027C14.0343 3.63121 13.8904 4.32413 13.8937 5.02409V9.49406C13.8937 10.6663 13.4282 11.7905 12.5993 12.6194C11.7704 13.4483 10.6461 13.914 9.47381 13.914H5.21404C3.94531 13.8943 2.71383 14.3438 1.75604 15.1761C0.798247 16.0084 0.181637 17.1649 0.0241023 18.424C-0.0445022 19.1206 0.0337144 19.8238 0.254083 20.4882C0.474451 21.1526 0.832084 21.7633 1.3034 22.2808C1.77471 22.7983 2.34948 23.2111 2.99041 23.4925C3.63134 23.7738 4.32415 23.9173 5.0241 23.914H9.50408C10.6711 23.9245 11.7865 24.3963 12.6071 25.2262C13.4277 26.0562 13.8867 27.1769 13.884 28.344V32.604C13.8643 33.8728 14.3139 35.1041 15.1462 36.0619C15.9785 37.0197 17.1347 37.6364 18.3937 37.794C19.0903 37.8626 19.7938 37.7842 20.4582 37.5639C21.1226 37.3435 21.7332 36.9861 22.2507 36.5148C22.7682 36.0435 23.1812 35.4687 23.4626 34.8278C23.7439 34.1869 23.8873 33.4939 23.884 32.794V28.344C23.884 27.7636 23.9983 27.1889 24.2204 26.6526C24.4425 26.1164 24.768 25.6291 25.1784 25.2187C25.5888 24.8082 26.0762 24.4827 26.6125 24.2605C27.1487 24.0384 27.7234 23.924 28.3039 23.924H32.7741C33.4741 23.9274 34.1669 23.7838 34.8078 23.5025C35.4487 23.2211 36.0235 22.8083 36.4948 22.2908C36.9661 21.7733 37.3233 21.1626 37.5436 20.4982C37.764 19.8338 37.8427 19.1306 37.7741 18.434C37.6231 17.166 37.0064 15.9994 36.0436 15.1604C35.0809 14.3215 33.8409 13.8702 32.5641 13.8941Z" />
</svg>
