<svg viewBox="0 0 50 32" xmlns="http://www.w3.org/2000/svg">
<path d="M 9.5234375 0 C 4.2635775 0 1.1842379e-15 4.2459419 0 9.4824219 L 0 22.517578 C 0 27.754078 4.2635775 32 9.5234375 32 L 40.476562 32 C 45.736362 32 50 27.754078 50 22.517578 L 50 9.4824219 C 50 4.2459419 45.736363 2.3684758e-15 40.476562 0 L 9.5234375 0 z M 14.261719 10 L 17.738281 10 C 18.434781 10 19 10.554028 19 11.236328 L 19 20.763672 C 19 21.445972 18.434781 22 17.738281 22 L 14.261719 22 C 13.565219 22 13 21.445972 13 20.763672 L 13 11.236328 C 13 10.554028 13.565219 10 14.261719 10 z M 32.261719 10 L 35.738281 10 C 36.434781 10 37 10.54615 37 11.21875 L 37 20.78125 C 37 21.45385 36.434781 22 35.738281 22 L 32.261719 22 C 31.565219 22 31 21.45385 31 20.78125 L 31 11.21875 C 31 10.54615 31.565219 10 32.261719 10 z " fill="#F6F6F6"/>
</svg>
